<svg width="24" height="31" viewBox="0 0 24 31" fill="none" xmlns="http://www.w3.org/2000/svg">
<path d="M18.8571 9.3H8.57143V6.2C8.57143 5.37783 8.93265 4.58933 9.57563 4.00797C10.2186 3.42661 11.0907 3.1 12 3.1C12.9093 3.1 13.7814 3.42661 14.4244 4.00797C15.0673 4.58933 15.4286 5.37783 15.4286 6.2H18.8571C18.8571 4.55566 18.1347 2.97866 16.8487 1.81594C15.5628 0.653212 13.8186 0 12 0C10.1814 0 8.43723 0.653212 7.15127 1.81594C5.8653 2.97866 5.14286 4.55566 5.14286 6.2V9.3C3.77935 9.30135 2.47211 9.7917 1.50796 10.6634C0.543813 11.5352 0.00149739 12.7172 0 13.95V26.35C0.00149739 27.5828 0.543813 28.7648 1.50796 29.6366C2.47211 30.5083 3.77935 30.9986 5.14286 31H18.8571C20.2207 30.9986 21.5279 30.5083 22.492 29.6366C23.4562 28.7648 23.9985 27.5828 24 26.35V13.95C23.9985 12.7172 23.4562 11.5352 22.492 10.6634C21.5279 9.7917 20.2207 9.30135 18.8571 9.3ZM20.5714 26.35C20.571 26.761 20.3903 27.155 20.0689 27.4456C19.7475 27.7362 19.3117 27.8996 18.8571 27.9H5.14286C4.68833 27.8996 4.25253 27.7362 3.93113 27.4456C3.60972 27.155 3.42898 26.761 3.42857 26.35V13.95C3.42898 13.539 3.60972 13.145 3.93113 12.8544C4.25253 12.5638 4.68833 12.4004 5.14286 12.4H18.8571C19.3117 12.4004 19.7475 12.5638 20.0689 12.8544C20.3903 13.145 20.571 13.539 20.5714 13.95V26.35Z" fill="#D0CED4"/>
<path d="M12 15.5C11.2461 15.4979 10.5126 15.7213 9.91369 16.1352C9.31475 16.5492 8.88397 17.1306 8.68839 17.7889C8.49281 18.4472 8.5434 19.1455 8.83229 19.7751C9.12118 20.4047 9.63217 20.9303 10.2857 21.27V24.8H13.7143V21.27C14.3678 20.9303 14.8788 20.4047 15.1677 19.7751C15.4566 19.1455 15.5072 18.4472 15.3116 17.7889C15.116 17.1306 14.6852 16.5492 14.0863 16.1352C13.4874 15.7213 12.7539 15.4979 12 15.5Z" fill="#D0CED4"/>
</svg>
