<svg width="31" height="31" viewBox="0 0 31 31" fill="none" xmlns="http://www.w3.org/2000/svg">
<path d="M31 15.5397C31.009 12.0002 29.8064 8.56424 27.592 5.80298C25.3777 3.04172 22.285 1.12149 18.8281 0.361521C15.3711 -0.398451 11.7582 0.0476109 8.58993 1.62555C5.42164 3.20349 2.88884 5.81826 1.41257 9.03518C-0.0636954 12.2521 -0.394501 15.8774 0.475149 19.3084C1.3448 22.7393 3.36252 25.7693 6.19288 27.8946C9.02324 30.02 12.4958 31.1126 16.0331 30.9908C19.5705 30.8691 22.9597 29.5403 25.6372 27.2255L25.6439 27.219L25.6462 27.2171L25.6484 27.2148C27.329 25.7693 28.6773 23.9776 29.601 21.9625C30.5247 19.9474 31.0019 17.7564 31 15.5397ZM3.17148 15.5397C3.16627 13.5657 3.63362 11.6191 4.53447 9.86264C5.43532 8.10619 6.74351 6.59087 8.3497 5.44333C9.95589 4.2958 11.8134 3.54938 13.767 3.26647C15.7207 2.98356 17.7136 3.17237 19.5794 3.81712C21.4451 4.46187 23.1294 5.54383 24.4915 6.97258C25.8537 8.40132 26.854 10.1353 27.409 12.0297C27.964 13.9241 28.0575 15.9238 27.6816 17.8617C27.3058 19.7996 26.4716 21.6194 25.2487 23.169C24.7324 22.0914 24.0372 21.1091 23.1925 20.2639C22.3037 19.3702 21.2639 18.6407 20.1212 18.109C20.9257 17.2205 21.4547 16.1173 21.6436 14.9337C21.8326 13.7501 21.6734 12.537 21.1856 11.4422C20.6977 10.3474 19.902 9.41796 18.8955 8.76708C17.889 8.1162 16.715 7.77191 15.5164 7.77611C14.3178 7.78031 13.1463 8.13281 12.1443 8.79073C11.1424 9.44865 10.3533 10.3836 9.87313 11.4818C9.39291 12.58 9.24226 13.7942 9.43951 14.9764C9.63677 16.1587 10.1734 17.2582 10.9842 18.141C8.74656 19.1889 6.93387 20.9695 5.8461 23.188C4.1157 21.0142 3.1729 18.3181 3.17148 15.5397ZM12.4476 13.9936C12.4476 13.3821 12.629 12.7843 12.9687 12.2758C13.3085 11.7673 13.7914 11.371 14.3564 11.137C14.9214 10.9029 15.5431 10.8417 16.1429 10.961C16.7427 11.0803 17.2937 11.3748 17.7261 11.8072C18.1585 12.2397 18.453 12.7906 18.5723 13.3904C18.6916 13.9902 18.6304 14.6119 18.3964 15.1769C18.1623 15.7419 17.766 16.2248 17.2575 16.5646C16.7491 16.9043 16.1512 17.0857 15.5397 17.0857C14.7199 17.0847 13.934 16.7587 13.3543 16.179C12.7746 15.5993 12.4486 14.8134 12.4476 13.9936ZM8.20194 25.4727C8.71806 23.9339 9.70349 22.5955 11.0197 21.6457C12.3359 20.696 13.9166 20.1826 15.5397 20.1777C17.163 20.1822 18.7441 20.6954 20.0606 21.6451C21.3771 22.5947 22.3629 23.9331 22.8793 25.4721C20.7593 27.0533 18.1853 27.9076 15.5406 27.9076C12.8959 27.9076 10.3219 27.054 8.20194 25.4727Z" fill="#D0CED4"/>
</svg>
