<svg width="23" height="31" viewBox="0 0 23 31" fill="none" xmlns="http://www.w3.org/2000/svg">
<path d="M11.6445 13.9493C13.3769 13.9493 14.7814 12.5614 14.7814 10.8493C14.7814 9.13719 13.3769 7.74927 11.6445 7.74927C9.91201 7.74927 8.50757 9.13719 8.50757 10.8493C8.50757 12.5614 9.91201 13.9493 11.6445 13.9493Z" fill="#D0CED4"/>
<path d="M21.7199 6.19483C20.8953 4.49464 19.6388 3.03478 18.0729 1.95779C16.507 0.880796 14.6852 0.223471 12.7855 0.0499879C12.0265 -0.0166626 11.263 -0.0166626 10.504 0.0499879C8.60422 0.223383 6.78236 0.880666 5.21634 1.95766C3.65032 3.03466 2.39367 4.49456 1.56906 6.19483C0.660782 7.99068 0.239286 9.98861 0.345728 11.9935C0.45217 13.9984 1.08291 15.9418 2.17636 17.6339L10.3212 30.2819C10.4628 30.502 10.6583 30.6832 10.8897 30.8087C11.121 30.9342 11.3806 31 11.6445 31C11.9084 31 12.1681 30.9342 12.3994 30.8087C12.6307 30.6832 12.8263 30.502 12.9679 30.2819L21.1126 17.6339C22.2062 15.9419 22.8371 13.9985 22.9435 11.9935C23.0499 9.98859 22.6283 7.99063 21.7199 6.19483ZM18.4658 15.9693L11.6445 26.5628L4.82312 15.9701C4.0206 14.7258 3.55829 13.2971 3.48132 11.8235C3.40435 10.3499 3.71535 8.88176 4.38395 7.5624C4.96495 6.3348 5.86242 5.27978 6.9863 4.50319C8.11019 3.72661 9.42098 3.25577 10.7871 3.13791C11.0695 3.11218 11.3552 3.09932 11.6445 3.09932C11.934 3.09932 12.2196 3.11218 12.503 3.13791C13.8691 3.2559 15.1797 3.7268 16.3034 4.50338C17.4272 5.27996 18.3245 6.33491 18.9054 7.5624C19.574 8.88166 19.8849 10.3497 19.8079 11.8232C19.7308 13.2967 19.2684 14.7252 18.4658 15.9693Z" fill="#D0CED4"/>
</svg>
