<svg width="43" height="42" viewBox="0 0 43 42" fill="none" xmlns="http://www.w3.org/2000/svg">
<path d="M40.7149 33.3688L33.1683 25.8586C32.9729 25.664 32.741 25.5097 32.4857 25.4044C32.2304 25.2991 31.9568 25.2449 31.6804 25.2449C31.404 25.2449 31.1304 25.2991 30.8751 25.4044C30.6198 25.5097 30.3879 25.664 30.1925 25.8586L29.5759 26.472L26.6263 23.5366C28.8673 20.5574 29.891 16.844 29.4913 13.1439C29.0916 9.44378 27.2982 6.03173 24.4722 3.59469C21.6461 1.15764 17.9973 -0.123428 14.2603 0.00938354C10.5232 0.142195 6.97548 1.67903 4.33131 4.31048C1.68714 6.94193 0.142882 10.4726 0.00942889 14.1917C-0.124025 17.9107 1.16324 21.542 3.61206 24.3545C6.06089 27.1669 9.48942 28.9517 13.2074 29.3494C16.9254 29.7472 20.6568 28.7284 23.6503 26.4982L26.6 29.4337L25.9836 30.0473C25.7881 30.2417 25.633 30.4725 25.5272 30.7266C25.4213 30.9807 25.3669 31.253 25.3669 31.528C25.3669 31.803 25.4213 32.0754 25.5272 32.3295C25.633 32.5835 25.7881 32.8143 25.9836 33.0087L33.53 40.5191C34.4828 41.4673 35.7751 42 37.1225 42C38.4699 42 39.7622 41.4673 40.7149 40.5191C41.6677 39.5709 42.203 38.2849 42.203 36.9439C42.203 35.603 41.6677 34.317 40.7149 33.3688ZM4.3221 14.7731C4.3221 12.702 4.93923 10.6774 6.09545 8.9553C7.25167 7.23322 8.89505 5.89102 10.8178 5.09843C12.7405 4.30585 14.8562 4.09847 16.8973 4.50253C18.9385 4.90659 20.8134 5.90393 22.285 7.36844C23.7566 8.83295 24.7588 10.6988 25.1648 12.7302C25.5708 14.7615 25.3624 16.867 24.566 18.7805C23.7696 20.694 22.4209 22.3295 20.6905 23.4801C18.9601 24.6308 16.9257 25.2449 14.8445 25.2449C12.0548 25.2417 9.3803 24.1373 7.40768 22.1742C5.43505 20.2111 4.32539 17.5494 4.3221 14.7731ZM37.739 37.5575C37.5751 37.7195 37.3535 37.8105 37.1225 37.8105C36.8915 37.8105 36.6698 37.7195 36.506 37.5575L30.4474 31.528L31.6804 30.3009L37.739 36.3304C37.9024 36.4932 37.9941 36.7139 37.9941 36.9439C37.9941 37.174 37.9024 37.3947 37.739 37.5575Z" fill="#999999"/>
</svg>
